<?xml version="1.0" encoding="utf-8"?>
<!-- Generator: Adobe Illustrator 16.0.0, SVG Export Plug-In . SVG Version: 6.00 Build 0)  -->
<!DOCTYPE svg PUBLIC "-//W3C//DTD SVG 1.1//EN" "http://www.w3.org/Graphics/SVG/1.1/DTD/svg11.dtd">
<svg version="1.1" xmlns="http://www.w3.org/2000/svg" xmlns:xlink="http://www.w3.org/1999/xlink" x="0px" y="0px" width="150px"
	 height="150px" viewBox="0 0 150 150" enable-background="new 0 0 150 150" xml:space="preserve">
<g id="Layer_1" display="none">
	<g display="inline">
		<g>
			<path d="M85.491,13.405c-3.929-7.397-14.516-9.157-22.029-9.778c-10.289-0.852-19.579,3.476-27.442,9.806
				c-9.391,7.56-17.109,18.244-23.152,28.58C6.283,53.274,1.872,65.82,0.292,78.77c-2.361,19.351,5.211,39.437,20.735,51.421
				c14.418,11.129,33.07,15.055,50.991,14.266c33.54-1.476,66.831-22.001,78.292-54.382c7.067-19.966,2.872-41.503-7.916-59.246
				C132.498,14.554,116.355,8.74,98.665,4.923c-3.145-0.678-4.48,4.142-1.33,4.821c10.966,2.366,22.062,4.905,30.896,12.23
				c10.509,8.712,16.836,22.315,19.55,35.448c5.325,25.771-8.238,50.635-28.672,65.591c-29.498,21.591-82.457,25.559-105.498-7.859
				C-2.544,91.721,6.338,61.029,20.56,39.052c7.381-11.406,17.429-23.973,30.533-28.839c5.29-1.965,10.883-1.986,16.39-1.106
				c4.683,0.748,11.274,2.271,13.692,6.822C82.688,18.777,87.003,16.251,85.491,13.405L85.491,13.405z"/>
		</g>
	</g>
</g>
<g id="Layer_2" display="none">
	<g display="inline">
		<g>
			<path d="M83.929,19.841C66.204,9.81,41.711,23.569,28.95,36.156c-17.341,17.104-23.899,43.099-15.133,66
				c7.36,19.229,24.904,31.973,43.996,38.051c18.485,5.886,39.343,6.44,55.872-4.603c12.004-8.02,21.779-19.747,28.621-32.372
				c5.899-10.886,10.199-24.603,5.632-36.707c-5.104-13.531-18.302-25.866-31.566-31.229c-7.989-3.231-17.04-5.291-25.629-5.923
				c-9.308-0.686-18.28,2.028-26.67,5.803c-2.937,1.321-0.392,5.629,2.523,4.317c25.533-11.488,56.145-1.819,72.21,20.697
				c13.418,18.807,0.877,41.775-12.234,57.098c-6.761,7.9-15.125,15.127-24.787,19.194c-9.245,3.892-20.433,3.206-30.147,1.778
				c-21.359-3.137-41.928-14.726-51.719-34.53C9.607,82.873,15.72,58.404,30.666,41.62c6.155-6.912,14.243-11.992,22.607-15.799
				c8.525-3.88,19.5-6.547,28.132-1.662C84.215,25.749,86.734,21.429,83.929,19.841L83.929,19.841z"/>
		</g>
	</g>
</g>
<g id="Layer_3" display="none">
	<g display="inline">
		<g>
			<path d="M82,10.833c-21.708,0.189-42.447,8.721-57.446,24.52C9.563,51.144,2.737,73.412,4.915,94.928
				c1.921,18.979,12.614,35.676,29.624,44.49c18.652,9.665,40.905,7.806,60.305,1.592c14.621-4.684,28.262-12.916,38.011-24.897
				c10.22-12.56,14.439-28.395,14.329-44.388c-0.11-16.082-8.406-28.936-21.162-38.124c-7.673-5.527-16.729-10.091-25.621-13.251
				c-11.104-3.946-20.207,1.981-31.067,3.15c-3.171,0.341-3.204,5.345,0,5c6.246-0.672,11.981-3.011,18.082-4.328
				c8.411-1.816,16.511,2.786,23.724,6.492c10.156,5.219,19.879,11.454,25.896,21.449c6.132,10.185,6.005,23.071,3.973,34.413
				c-1.924,10.73-6.845,20.654-14.029,28.818c-14.422,16.387-37.784,24.69-59.147,25.789c-20.593,1.059-40.984-7.434-51.488-25.738
				c-11.66-20.318-7.848-47.628,4.2-66.797C33.671,27.708,57.705,16.045,82,15.833C85.223,15.805,85.226,10.805,82,10.833L82,10.833
				z"/>
		</g>
	</g>
</g>
<g id="Layer_4">
	<g>
		<g>
			<path fill="#ED1968" d="M95.332,16.256c-21.976-3.668-43.857,3.63-60.089,18.709C19.55,49.543,10.654,72.342,15.408,93.563
				c9.443,42.156,67.709,64.023,101.644,37.045c18.712-14.877,30.678-43.591,25.075-67.321
				c-5.848-24.771-33.868-35.584-56.794-35.786c-3.226-0.028-3.223,4.972,0,5c21.321,0.188,45.866,9.636,51.973,32.116
				c2.992,11.017,0.067,23.677-3.674,34.162c-3.807,10.672-10.403,20.24-19.102,27.488c-18.81,15.674-45.097,13.942-65.374,2.354
				c-20.618-11.784-33.683-33.675-28.92-57.568c6.55-32.855,41.146-55.418,73.765-49.974C97.155,21.604,98.507,16.786,95.332,16.256
				L95.332,16.256z"/>
		</g>
	</g>
</g>
<g id="Layer_5" display="none">
	<g display="inline">
		<g>
			<path d="M112.435,22.899C78.222-6.54,23.886,20.463,5.139,55.179C-5.586,75.04-5.963,98.577,3.183,119.045
				c4.701,10.521,12.234,19.689,20.992,27.086c9.695,8.188,20.703,12.082,33.148,13.871c5.385,0.774,10.816,1.186,16.234,1.634
				c5.597,0.463,11.146,1.3,16.771,0.907c9.727-0.68,18.854-5.236,26.376-11.24c16.176-12.911,29.965-30.533,31.655-51.75
				c1.579-19.833-8.96-38.564-22.83-51.925c-7.876-7.585-17.168-13.569-27.466-17.257c-10.63-3.806-22.231-4.176-33.397-4.204
				c-3.225-0.008-3.224,4.992,0,5c13.964,0.036,27.544,1.123,40.192,7.538c11.569,5.869,21.62,15.521,28.763,26.271
				c6.55,9.859,10.136,21.389,9.81,33.236c-0.368,13.37-6.928,25.274-15.51,35.146c-8.228,9.463-17.643,18.535-29.773,22.579
				c-6.068,2.022-12.209,1.887-18.477,1.244c-6.706-0.688-13.435-1.076-20.129-1.885c-14.178-1.712-25.783-6.777-36.198-16.597
				c-8.835-8.331-15.336-18.91-18.961-30.475c-8.929-28.485,3.919-58.733,27.24-76.035c21.463-15.924,54.967-24.952,77.277-5.755
				C111.33,28.526,114.883,25.006,112.435,22.899L112.435,22.899z"/>
		</g>
	</g>
</g>
</svg>
